<mxfile host="app.diagrams.net" modified="2020-11-22T14:45:12.036Z" agent="5.0 (Windows NT 10.0; Win64; x64) AppleWebKit/537.36 (KHTML, like Gecko) Chrome/87.0.4280.66 Safari/537.36" etag="2H98mWxqgpxUfi0GUfuY" version="13.10.0" type="github">
  <diagram id="kgpKYQtTHZ0yAKxKKP6v" name="Page-1">
    <mxGraphModel dx="1038" dy="548" grid="1" gridSize="10" guides="1" tooltips="1" connect="1" arrows="1" fold="1" page="1" pageScale="1" pageWidth="850" pageHeight="1100" math="0" shadow="0">
      <root>
        <mxCell id="0" />
        <mxCell id="1" parent="0" />
        <mxCell id="SaSodBdJ9S873mT8EDmA-1" value="DEV" style="rounded=0;whiteSpace=wrap;html=1;" vertex="1" parent="1">
          <mxGeometry x="270" y="120" width="100" height="30" as="geometry" />
        </mxCell>
        <mxCell id="SaSodBdJ9S873mT8EDmA-2" value="MASTER" style="rounded=0;whiteSpace=wrap;html=1;" vertex="1" parent="1">
          <mxGeometry x="640" y="50" width="100" height="30" as="geometry" />
        </mxCell>
        <mxCell id="SaSodBdJ9S873mT8EDmA-3" value="QA" style="rounded=0;whiteSpace=wrap;html=1;" vertex="1" parent="1">
          <mxGeometry x="480" y="120" width="100" height="30" as="geometry" />
        </mxCell>
        <mxCell id="SaSodBdJ9S873mT8EDmA-4" value="PQA" style="rounded=0;whiteSpace=wrap;html=1;" vertex="1" parent="1">
          <mxGeometry x="390" y="220" width="100" height="30" as="geometry" />
        </mxCell>
        <mxCell id="SaSodBdJ9S873mT8EDmA-5" value="QAv3" style="rounded=0;whiteSpace=wrap;html=1;" vertex="1" parent="1">
          <mxGeometry x="480" y="340" width="100" height="30" as="geometry" />
        </mxCell>
        <mxCell id="SaSodBdJ9S873mT8EDmA-7" value="FeatureBranch" style="rounded=0;whiteSpace=wrap;html=1;" vertex="1" parent="1">
          <mxGeometry x="180" y="220" width="100" height="30" as="geometry" />
        </mxCell>
        <mxCell id="SaSodBdJ9S873mT8EDmA-8" value="" style="endArrow=classic;html=1;exitX=0.5;exitY=1;exitDx=0;exitDy=0;entryX=0.5;entryY=0;entryDx=0;entryDy=0;" edge="1" parent="1" source="SaSodBdJ9S873mT8EDmA-1" target="SaSodBdJ9S873mT8EDmA-7">
          <mxGeometry width="50" height="50" relative="1" as="geometry">
            <mxPoint x="420" y="310" as="sourcePoint" />
            <mxPoint x="470" y="260" as="targetPoint" />
          </mxGeometry>
        </mxCell>
        <mxCell id="SaSodBdJ9S873mT8EDmA-12" value="1. Developer creates&amp;nbsp;&lt;b&gt;FeatureBranch&lt;br&gt;&lt;/b&gt;from &lt;b&gt;DEV&lt;/b&gt; branch" style="text;html=1;strokeColor=none;fillColor=none;align=left;verticalAlign=middle;whiteSpace=wrap;rounded=0;" vertex="1" parent="1">
          <mxGeometry x="80" y="150" width="210" height="50" as="geometry" />
        </mxCell>
        <mxCell id="SaSodBdJ9S873mT8EDmA-13" value="" style="endArrow=classic;html=1;exitX=1;exitY=0.5;exitDx=0;exitDy=0;entryX=0;entryY=0.5;entryDx=0;entryDy=0;" edge="1" parent="1" source="SaSodBdJ9S873mT8EDmA-7" target="SaSodBdJ9S873mT8EDmA-4">
          <mxGeometry width="50" height="50" relative="1" as="geometry">
            <mxPoint x="420" y="260" as="sourcePoint" />
            <mxPoint x="470" y="210" as="targetPoint" />
          </mxGeometry>
        </mxCell>
        <mxCell id="SaSodBdJ9S873mT8EDmA-14" value="2. Once development is completed, &lt;b&gt;FeatureBranch &lt;/b&gt;gets merged into &lt;b&gt;PQA&lt;/b&gt; branch and deployed. This is the place where QAs tests app for all the scenarios" style="text;html=1;strokeColor=none;fillColor=none;align=left;verticalAlign=middle;whiteSpace=wrap;rounded=0;" vertex="1" parent="1">
          <mxGeometry x="200" y="250" width="250" height="80" as="geometry" />
        </mxCell>
      </root>
    </mxGraphModel>
  </diagram>
</mxfile>
